<?xml version="1.0" encoding="UTF-8" standalone="no"?>
<!DOCTYPE svg PUBLIC "-//W3C//DTD SVG 1.1//EN" "http://www.w3.org/Graphics/SVG/1.1/DTD/svg11.dtd">
<svg width="100%" height="100%" viewBox="0 0 1067 771" version="1.1" xmlns="http://www.w3.org/2000/svg" xmlns:xlink="http://www.w3.org/1999/xlink" xml:space="preserve" xmlns:serif="http://www.serif.com/" style="fill-rule:evenodd;clip-rule:evenodd;stroke-linejoin:round;stroke-miterlimit:2;">
    <g transform="matrix(1,0,0,1,-2133.333333,-148.148441)">
        <g id="keset" transform="matrix(29.62963,0,0,29.62963,2133.333333,0)">
            <clipPath id="_clip1">
                <path d="M4,5C1.791,5 0,6.791 0,9L0,27C0,29.209 1.791,31 4,31L32,31C34.209,31 36,29.209 36,27L36,9C36,6.791 34.209,5 32,5L4,5Z"/>
            </clipPath>
            <g clip-path="url(#_clip1)">
                <path id="path1" d="M4,5C1.791,5 0,6.791 0,9L0,27C0,29.209 1.791,31 4,31L32,31C34.209,31 36,29.209 36,27L36,9C36,6.791 34.209,5 32,5L4,5Z" style="fill:rgb(242,50,50);fill-rule:nonzero;"/>
                <g transform="matrix(0.031132,0,0,0.03375,-67.862279,-0)">
                    <rect x="2295.49" y="148.148" width="115.638" height="770.37" style="fill:white;"/>
                </g>
                <g transform="matrix(0.031132,0,0,0.03375,-60.662279,-0)">
                    <rect x="2295.49" y="148.148" width="115.638" height="770.37" style="fill:white;"/>
                </g>
                <g transform="matrix(0,0.031132,-0.03004,0,40.450323,-55.262279)">
                    <rect x="2295.49" y="148.148" width="115.638" height="770.37" style="fill:white;"/>
                </g>
                <g transform="matrix(0.031132,0,0,0.016152,-46.262279,16.163824)">
                    <rect x="2295.49" y="148.148" width="115.638" height="770.37" style="fill:white;"/>
                </g>
            </g>
        </g>
    </g>
</svg>
