<?xml version="1.0" encoding="UTF-8" standalone="no"?>
<!DOCTYPE svg PUBLIC "-//W3C//DTD SVG 1.1//EN" "http://www.w3.org/Graphics/SVG/1.1/DTD/svg11.dtd">
<svg width="100%" height="100%" viewBox="0 0 1067 771" version="1.1" xmlns="http://www.w3.org/2000/svg" xmlns:xlink="http://www.w3.org/1999/xlink" xml:space="preserve" xmlns:serif="http://www.serif.com/" style="fill-rule:evenodd;clip-rule:evenodd;stroke-linejoin:round;stroke-miterlimit:2;">
    <g transform="matrix(1,0,0,1,0,-148.14843)">
        <g id="zesmaloinian" transform="matrix(29.62963,0,0,29.62963,0,0)">
            <clipPath id="_clip1">
                <path d="M4,5C1.791,5 0,6.791 0,9L0,27C0,29.209 1.791,31 4,31L32,31C34.209,31 36,29.209 36,27L36,9C36,6.791 34.209,5 32,5L4,5Z"/>
            </clipPath>
            <g clip-path="url(#_clip1)">
                <path id="path1" d="M4,5C1.791,5 0,6.791 0,9L0,27C0,29.209 1.791,31 4,31L32,31C34.209,31 36,29.209 36,27L36,9C36,6.791 34.209,5 32,5L4,5Z" style="fill:rgb(80,141,42);fill-rule:nonzero;"/>
                <g transform="matrix(0.03375,0,0,0.03375,0,0)">
                    <rect x="0" y="148.148" width="770.37" height="770.37" style="fill:rgb(14,18,130);"/>
                </g>
                <g transform="matrix(0.004868,0,0,0.03375,25.99998,0)">
                    <rect x="0" y="148.148" width="770.37" height="770.37" style="fill:rgb(50,187,211);"/>
                </g>
                <g transform="matrix(0.004673,0,0,0.016875,29.749988,2.500005)">
                    <rect x="0" y="148.148" width="770.37" height="770.37" style="fill:rgb(229,76,0);"/>
                </g>
                <g transform="matrix(0.004673,0,0,0.016875,28.649993,15.499996)">
                    <rect x="0" y="148.148" width="770.37" height="770.37" style="fill:rgb(50,187,211);"/>
                </g>
                <g transform="matrix(0.004868,0,0,0.03375,32.249993,0)">
                    <rect x="0" y="148.148" width="770.37" height="770.37" style="fill:rgb(229,76,0);"/>
                </g>
                <g transform="matrix(0.031096,0,0,0.031096,0.763169,1.359027)">
                    <path d="M166.752,308.973L658.848,384.865L613.488,766.995L566.752,798.61L520.017,533.333L297.337,558.06L239.605,790.363L195.618,772.493L166.752,308.973Z" style="fill:rgb(255,242,0);"/>
                </g>
            </g>
        </g>
    </g>
</svg>
